<svg width="49" height="48" viewBox="0 0 49 48" fill="none" xmlns="http://www.w3.org/2000/svg">
<rect x="0.5" width="48" height="48" rx="12" fill="#F4F4F4"/>
<path fill-rule="evenodd" clip-rule="evenodd" d="M40.5 24.3637C40.5 23.2292 40.3961 22.1383 40.2032 21.091H24.8265V27.2801H33.6132C33.2347 29.2801 32.0844 30.9746 30.3553 32.1092V36.1237H35.6317C38.7189 33.3382 40.5 29.2364 40.5 24.3637Z" fill="#4285F4"/>
<path fill-rule="evenodd" clip-rule="evenodd" d="M24.8265 39.9999C29.2347 39.9999 32.9304 38.5673 35.6317 36.1237L30.3553 32.1092C28.8933 33.0692 27.0232 33.6363 24.8265 33.6363C20.5742 33.6363 16.975 30.8218 15.6911 27.04H10.2366V31.1854C12.923 36.4145 18.4444 39.9999 24.8265 39.9999Z" fill="#34A853"/>
<path fill-rule="evenodd" clip-rule="evenodd" d="M15.6911 27.04C15.3646 26.08 15.179 25.0546 15.179 24.0001C15.179 22.9455 15.3646 21.9201 15.6911 20.9601V16.8146H10.2366C9.1308 18.9746 8.5 21.4182 8.5 24.0001C8.5 26.5819 9.13081 29.0254 10.2366 31.1854L15.6911 27.04Z" fill="#FBBC05"/>
<path fill-rule="evenodd" clip-rule="evenodd" d="M24.8265 14.3636C27.2236 14.3636 29.3757 15.1709 31.0677 16.7564L35.7505 12.1673C32.923 9.58545 29.2273 8 24.8265 8C18.4444 8 12.923 11.5855 10.2366 16.8146L15.6911 20.9601C16.975 17.1783 20.5742 14.3636 24.8265 14.3636Z" fill="#EA4335"/>
</svg>
