<svg width="49" height="48" viewBox="0 0 49 48" fill="none" xmlns="http://www.w3.org/2000/svg">
<rect x="0.5" width="48" height="48" rx="12" fill="#005FF9"/>
<path d="M28.711 24C28.711 26.322 26.822 28.211 24.5 28.211C22.178 28.211 20.289 26.322 20.289 24C20.289 21.678 22.178 19.789 24.5 19.789C26.822 19.789 28.711 21.678 28.711 24ZM24.5 10C16.78 10 10.5 16.28 10.5 24C10.5 31.72 16.78 38 24.5 38C27.328 38 30.055 37.158 32.386 35.565L32.426 35.537L30.54 33.345L30.508 33.365C28.714 34.52 26.636 35.13 24.5 35.13C18.363 35.13 13.37 30.137 13.37 24C13.37 17.863 18.363 12.87 24.5 12.87C30.637 12.87 35.63 17.863 35.63 24C35.63 24.795 35.541 25.6 35.368 26.392C35.016 27.837 34.004 28.279 33.245 28.221C32.481 28.159 31.587 27.615 31.581 26.283V25.268V24C31.581 20.095 28.405 16.919 24.5 16.919C20.595 16.919 17.419 20.095 17.419 24C17.419 27.905 20.595 31.081 24.5 31.081C26.397 31.081 28.176 30.34 29.517 28.991C30.297 30.205 31.568 30.966 33.015 31.082C33.139 31.092 33.266 31.097 33.391 31.097C34.41 31.097 35.419 30.756 36.233 30.139C37.072 29.501 37.699 28.58 38.045 27.473C38.1 27.294 38.202 26.885 38.202 26.882L38.205 26.867C38.409 25.979 38.5 25.094 38.5 24C38.5 16.28 32.22 10 24.5 10Z" fill="#FF9E00"/>
</svg>
