<svg width="49" height="48" viewBox="0 0 49 48" fill="none" xmlns="http://www.w3.org/2000/svg">
<rect x="0.5" width="48" height="48" rx="12" fill="#21A038"/>
<path fill-rule="evenodd" clip-rule="evenodd" d="M24.2606 7.19996H24.2574C19.984 7.19468 15.8114 8.91144 12.7579 11.8964C7.89093 16.634 6.36088 24.1341 8.93687 30.4331C10.5448 34.3651 13.6514 37.6189 17.5304 39.3637C21.651 41.217 26.4334 41.281 30.6008 39.5306C34.526 37.882 37.7085 34.7182 39.4156 30.8189C40.7606 27.7471 41.1586 24.2901 40.5763 20.9904L37.0076 23.6557C37.0076 25.5844 36.6901 27.467 35.9116 29.2421C34.5973 32.2388 32.1522 34.6729 29.1353 35.942C25.9283 37.2909 22.2592 37.2418 19.086 35.8127C16.1013 34.4684 13.7175 31.9717 12.4778 28.9444C11.149 25.6997 11.1958 21.97 12.6036 18.7601C13.917 15.7654 16.3608 13.3327 19.3786 12.0631C23.33 10.4008 27.9081 10.8767 31.4445 13.3356L34.6682 10.9275C31.7535 8.53554 28.0296 7.19515 24.2606 7.19996ZM37.3768 13.7303C38.1644 14.7622 38.8312 15.8834 39.3636 17.0712L24.2609 28.3541L17.949 24.3442V19.5201L24.2609 23.53L37.3768 13.7303Z" fill="white"/>
</svg>
