<svg width="49" height="48" viewBox="0 0 49 48" fill="none" xmlns="http://www.w3.org/2000/svg">
<rect x="0.5" width="48" height="48" rx="12" fill="#2787F5"/>
<path fill-rule="evenodd" clip-rule="evenodd" d="M38.3346 17.0159C38.5362 16.3853 38.3346 15.9219 37.3751 15.9219H34.2025C33.3958 15.9219 33.0239 16.3222 32.8222 16.7636C32.8222 16.7636 31.2089 20.4526 28.9233 22.8488C28.1838 23.5425 27.8477 23.7632 27.4443 23.7632C27.2427 23.7632 26.9508 23.5425 26.9508 22.9119V17.0159C26.9508 16.2591 26.7167 15.9219 26.0444 15.9219H21.0588C20.5547 15.9219 20.2515 16.2731 20.2515 16.606C20.2515 17.3233 21.3943 17.4887 21.5121 19.5067V23.8894C21.5121 24.8502 21.3271 25.0244 20.9237 25.0244C19.8482 25.0244 17.232 21.319 15.6803 17.0789C15.3762 16.2548 15.0712 15.9219 14.2604 15.9219H11.0878C10.1813 15.9219 10 16.3222 10 16.7636C10 17.5518 11.0756 21.4616 15.0081 26.6324C17.6298 30.1637 21.3235 32.078 24.6847 32.078C26.7014 32.078 26.9508 31.6528 26.9508 30.9205V28.2515C26.9508 27.4012 27.1419 27.2315 27.7805 27.2315C28.251 27.2315 29.0577 27.4522 30.94 29.1548C33.0911 31.1727 33.4458 32.078 34.6558 32.078H37.8284C38.7348 32.078 39.1881 31.6528 38.9266 30.8138C38.6405 29.9775 37.6134 28.7643 36.2506 27.3261C35.5112 26.5063 34.402 25.6235 34.0658 25.182C33.5953 24.6145 33.7298 24.3622 34.0658 23.8578C34.0658 23.8578 37.9312 18.75 38.3346 17.0159Z" fill="white"/>
</svg>
