<svg width="49" height="48" viewBox="0 0 49 48" fill="none" xmlns="http://www.w3.org/2000/svg">
<rect x="0.5" width="48" height="48" rx="12" fill="#FC3F1D"/>
<path d="M46 24C46 12.1259 36.3741 2.5 24.5 2.5C12.6259 2.5 3 12.1259 3 24C3 35.8741 12.6259 45.5 24.5 45.5C36.3741 45.5 46 35.8741 46 24Z" fill="#FC3F1D"/>
<path d="M27.5299 36.9215H32.0216V11.1215H25.4881C18.9173 11.1215 15.465 14.4997 15.465 19.4741C15.465 23.4462 17.3582 25.7849 20.7364 28.1977L14.871 36.9215H19.7342L26.2677 27.1583L24.0032 25.6363C21.2562 23.7802 19.9198 22.3325 19.9198 19.2141C19.9198 16.4671 21.8501 14.6109 25.5252 14.6109H27.5299V36.9215Z" fill="white"/>
</svg>
