<svg xmlns="http://www.w3.org/2000/svg" width="80" height="43" viewBox="0 0 80 43" fill="none">
<g clip-path="url(#clip0_468_431)">
<path d="M11.9407 2.98859C10.1735 0.130689 6.2595 -0.848501 3.19857 0.80151C0.13763 2.45152 -0.911125 6.10591 0.856108 8.96381L20.0553 40.012C21.8225 42.8699 25.7365 43.8491 28.7974 42.199C31.8584 40.549 32.9071 36.8946 31.1399 34.0367L11.9407 2.98859Z" fill="black"/>
<path d="M48.855 34.0346C47.0877 36.8925 48.1365 40.5468 51.1974 42.1969C54.2584 43.8469 58.1724 42.8677 59.9396 40.0098L79.1388 8.96163C80.906 6.10372 79.8572 2.44933 76.7963 0.799323C73.7354 -0.850688 69.8214 0.128502 68.0541 2.98641L48.855 34.0346Z" fill="#089663"/>
<path d="M57.5905 42.1975C56.8627 42.5899 56.0592 42.8447 55.226 42.9473C54.3928 43.0498 53.5461 42.9981 52.7342 42.7951C51.9224 42.5921 51.1613 42.2418 50.4945 41.7642C49.8276 41.2866 49.2681 40.6911 48.8478 40.0115L37.6483 22.1921C36.8 20.8197 36.5704 19.189 37.0097 17.6585C37.4491 16.1281 38.5216 14.8232 39.9913 14.0309C41.4609 13.2389 43.2073 13.0242 44.8465 13.4341C46.4857 13.844 47.8833 14.845 48.7322 16.2169L59.9317 34.0363C60.7801 35.4085 61.01 37.0391 60.571 38.5695C60.1319 40.0999 59.0598 41.4049 57.5905 42.1975Z" fill="black"/>
</g>
<defs>
<clipPath id="clip0_468_431">
<rect width="80" height="43" fill="white"/>
</clipPath>
</defs>
</svg>